# xmcd
#
# Track frame offsets: 
#        150
#        15192
#        32547
#        49175
#        72817
#        88765
#        99595
#        115822
#        133717
#        148355
#        163360
#
# Disc length: 2410 seconds
#
# Revision: 3
# Processed by: cddbd v1.5.2PL0 Copyright (c) Steve Scherf et al.
# Submitted via: ExactAudioCopy v0.95b4
#
DISCID=9509680b
DTITLE=The Mavericks - What a Crying Shame
DYEAR=1994
DGENRE=Country
TTITLE0=There Goes My Heart
TTITLE1=What a Crying Shame
TTITLE2=Pretend
TTITLE3=I Should Have Been True
TTITLE4=The Things You Said to Me
TTITLE5=Just a Memory
TTITLE6=All That Heaven Will Allow
TTITLE7=Neon Blue
TTITLE8=What a Thrill
TTITLE9=Ain't Found Nobody
TTITLE10=The Losing Side of Me
EXTD=YEAR: 1994
EXTT0=
EXTT1=
EXTT2=
EXTT3=
EXTT4=
EXTT5=
EXTT6=
EXTT7=
EXTT8=
EXTT9=
EXTT10=
PLAYORDER=
